{
	"asset":{
		"version":"2.0",
		"generator":"Houdini GLTF 2.0 Exporter"
	},
	"accessors":[
		{
			"bufferView":0,
			"componentType":5125,
			"count":119352,
			"type":"SCALAR",
			"min":[0
			],
			"max":[19897
			]
		},
		{
			"bufferView":1,
			"componentType":5126,
			"count":19898,
			"type":"VEC3",
			"min":[-0.500004113,-0.14040795,-0.033314947
			],
			"max":[0.500011921,0.140414402,0.033307042
			]
		},
		{
			"bufferView":2,
			"componentType":5126,
			"count":19898,
			"type":"VEC3",
			"min":[-1.27489614,-0.357900411,-0.0847012475
			],
			"max":[1.27487385,0.357910961,0.0845776051
			]
		},
		{
			"bufferView":3,
			"componentType":5126,
			"count":19898,
			"type":"VEC2",
			"min":[-0.0045214151,0.0246893764
			],
			"max":[1.00451195,0.975120008
			]
		}
	],
	"buffers":[
		{
			"uri":"test2_data.bin",
			"byteLength":1114144,
			"name":"main_buffer"
		}
	],
	"bufferViews":[
		{
			"buffer":0,
			"byteLength":477408,
			"target":34963
		},
		{
			"buffer":0,
			"byteOffset":477408,
			"byteLength":238776,
			"target":34962
		},
		{
			"buffer":0,
			"byteOffset":716184,
			"byteLength":238776,
			"target":34962
		},
		{
			"buffer":0,
			"byteOffset":954960,
			"byteLength":159184,
			"target":34962
		}
	],
	"nodes":[
		{
			"name":"type_mops",
			"mesh":0
		}
	],
	"meshes":[
		{
			"primitives":[
				{
					"attributes":{
						"TEXCOORD_0":3,
						"_rest":2,
						"POSITION":1
					},
					"indices":0
				}
			],
			"name":"remesh2"
		}
	],
	"scenes":[
		{
			"nodes":[0
			]
		}
	],
	"scene":0
}
