{
	"asset":{
		"version":"2.0",
		"generator":"Houdini GLTF 2.0 Exporter"
	},
	"accessors":[
		{
			"bufferView":0,
			"componentType":5125,
			"count":180456,
			"type":"SCALAR",
			"min":[0
			],
			"max":[30079
			]
		},
		{
			"bufferView":1,
			"componentType":5126,
			"count":30080,
			"type":"VEC3",
			"min":[-0.863159955,-0.320552915,-0.0946576297
			],
			"max":[0.82119453,0.264463097,0.107945122
			]
		},
		{
			"bufferView":2,
			"componentType":5126,
			"count":30080,
			"type":"VEC3",
			"min":[-0.999978721,-0.999946833,-0.999985337
			],
			"max":[0.999993742,0.999718606,0.999980628
			]
		}
	],
	"buffers":[
		{
			"uri":"test_data.bin",
			"byteLength":1443744,
			"name":"main_buffer"
		}
	],
	"bufferViews":[
		{
			"buffer":0,
			"byteLength":721824,
			"target":34963
		},
		{
			"buffer":0,
			"byteOffset":721824,
			"byteLength":360960,
			"target":34962
		},
		{
			"buffer":0,
			"byteOffset":1082784,
			"byteLength":360960,
			"target":34962
		}
	],
	"nodes":[
		{
			"name":"basefile",
			"mesh":0
		}
	],
	"meshes":[
		{
			"primitives":[
				{
					"attributes":{
						"NORMAL":2,
						"POSITION":1
					},
					"indices":0,
					"material":0
				}
			],
			"name":"normal1"
		}
	],
	"materials":[
		{
			"name":"principledshader1",
			"pbrMetallicRoughness":{
				"baseColorFactor":[1,0,0.5,1
				],
				"metallicFactor":0,
				"roughnessFactor":0.358200014
			}
		}
	],
	"scenes":[
		{
			"nodes":[0
			]
		}
	],
	"scene":0
}
